<svg width="20" height="20" viewBox="0 0 24 24" fill="none" xmlns="http://www.w3.org/2000/svg">
<g clip-path="url(#clip0_5404_60023)">
<path d="M3.32812 12C3.32812 8.34946 5.57302 5.2685 8.68495 3.98216H8.68542L9.68386 2.18872C5.277 3.21969 1.92188 7.18836 1.92188 12C1.92188 16.5278 4.91658 20.3924 9.08053 21.6482L9.18647 20.2054C5.72475 19.0201 3.32812 15.7464 3.32812 12Z" fill="current"/>
<path d="M14.9194 2.35181L14.8135 3.79462C18.2752 4.9799 20.6719 8.2536 20.6719 12C20.6719 15.647 18.4296 18.7304 15.3151 20.0179H15.3146L14.3162 21.8113C18.7231 20.7803 22.0781 16.8117 22.0781 12C22.0781 7.47229 19.0834 3.60754 14.9194 2.35181Z" fill="current"/>
<path d="M18.6997 10.3364C18.5735 10.1215 18.3428 9.98956 18.0936 9.98956H12.9487L13.6265 0.754767C13.6506 0.425751 13.4428 0.124204 13.1268 0.0296573C12.8107 -0.0650771 12.4715 0.0729229 12.311 0.361157L5.29195 12.9653C5.17068 13.1831 5.17378 13.4487 5.30006 13.6636C5.42634 13.8785 5.65701 14.0105 5.90624 14.0105H11.0512L10.3733 23.2453C10.3492 23.5743 10.557 23.8758 10.8731 23.9704C11.1917 24.0658 11.5298 23.9246 11.6889 23.6389L18.7079 11.0348C18.8291 10.817 18.826 10.5513 18.6997 10.3364Z" fill="current"/>
</g>
<defs>
<clipPath id="clip0_5404_60023">
<rect width="24" height="24" fill="white"/>
</clipPath>
</defs>
</svg>
