<svg width="12" height="13" viewBox="0 0 12 13" fill="none" xmlns="http://www.w3.org/2000/svg">
<path opacity="0.4" d="M10.3096 4.975C9.78456 2.665 7.76956 1.625 5.99956 1.625C5.99956 1.625 5.99956 1.625 5.99456 1.625C4.22956 1.625 2.20956 2.66 1.68456 4.97C1.09956 7.55 2.67956 9.735 4.10956 11.11C4.63956 11.62 5.31956 11.875 5.99956 11.875C6.67956 11.875 7.35956 11.62 7.88456 11.11C9.31456 9.735 10.8946 7.555 10.3096 4.975Z" fill="#2B7AE8"/>
<path d="M5.9998 7.48008C6.86965 7.48008 7.5748 6.77493 7.5748 5.90508C7.5748 5.03523 6.86965 4.33008 5.9998 4.33008C5.12996 4.33008 4.4248 5.03523 4.4248 5.90508C4.4248 6.77493 5.12996 7.48008 5.9998 7.48008Z" fill="#2B7AE8"/>
</svg>
